<svg xmlns="http://www.w3.org/2000/svg" width="24.6" height="24.6" viewBox="0 0 24.6 24.6">
  <g id="pinterest-1" transform="translate(-4.1 -4.2)">
    <path id="Path_57" data-name="Path 57" d="M28.7,16.5A12.3,12.3,0,1,1,16.4,4.2,12.3,12.3,0,0,1,28.7,16.5Z" fill="#ca2127"/>
    <path id="Path_58" data-name="Path 58" d="M71.081,62c-3.466.372-6.918,3.038-7.059,6.855-.091,2.329.884,4.077,3.214,4.568a12.434,12.434,0,0,0,.316-1.7,4.541,4.541,0,0,1-1.13-1.607c-.856-5.024,6.083-8.455,9.725-4.947,2.512,2.435.856,9.921-3.2,9.143-3.887-.744,1.9-6.7-1.2-7.873-2.519-.954-3.859,2.912-2.666,4.827-.7,3.3-2.21,6.406-1.6,10.539,1.986-1.368,2.652-3.992,3.2-6.729,1,.575,1.53,1.179,2.8,1.27,4.687.344,7.3-4.456,6.666-8.89C79.571,63.534,75.46,61.534,71.081,62Z" transform="translate(-55.713 -53.686)" fill="#fff"/>
  </g>
</svg>
