<svg id="Layer_2" data-name="Layer 2" xmlns="http://www.w3.org/2000/svg" xmlns:xlink="http://www.w3.org/1999/xlink" width="300" height="232.288" viewBox="0 0 300 232.288">
  <defs>
    <linearGradient id="linear-gradient" y1="0.5" x2="1" y2="0.5" gradientUnits="objectBoundingBox">
      <stop offset="0.06" stop-color="#78ffd5"/>
      <stop offset="0.11" stop-color="#71e9d2"/>
      <stop offset="0.24" stop-color="#61b6cc"/>
      <stop offset="0.36" stop-color="#5592c8"/>
      <stop offset="0.45" stop-color="#4e7bc5"/>
      <stop offset="0.51" stop-color="#4b73c4"/>
      <stop offset="0.57" stop-color="#4d7ac5"/>
      <stop offset="0.65" stop-color="#548ec7"/>
      <stop offset="0.75" stop-color="#5eaecb"/>
      <stop offset="0.86" stop-color="#6cdad1"/>
      <stop offset="0.95" stop-color="#78ffd5"/>
    </linearGradient>
    <radialGradient id="radial-gradient" cx="0.5" cy="0.5" r="0.499" gradientTransform="translate(-0.001)" gradientUnits="objectBoundingBox">
      <stop offset="0.15" stop-color="#78ffd5"/>
      <stop offset="0.26" stop-color="#76fad4"/>
      <stop offset="0.4" stop-color="#72ecd3"/>
      <stop offset="0.55" stop-color="#6ad4d0"/>
      <stop offset="0.71" stop-color="#60b3cc"/>
      <stop offset="0.87" stop-color="#5289c7"/>
      <stop offset="0.95" stop-color="#4b73c4"/>
    </radialGradient>
    <linearGradient id="linear-gradient-2" x1="0.5" x2="0.5" y2="1" gradientUnits="objectBoundingBox">
      <stop offset="0.15" stop-color="#78ffd5"/>
      <stop offset="0.25" stop-color="#74f2d3"/>
      <stop offset="0.45" stop-color="#69d0cf"/>
      <stop offset="0.71" stop-color="#5799c9"/>
      <stop offset="0.88" stop-color="#4b73c4"/>
    </linearGradient>
    <linearGradient id="linear-gradient-3" x1="0.5" y1="0" x2="0.5" y2="1" xlink:href="#linear-gradient-2"/>
    <linearGradient id="linear-gradient-4" x1="0.5" y1="0" x2="0.5" y2="1" xlink:href="#linear-gradient-2"/>
    <linearGradient id="linear-gradient-5" x1="0.5" y1="0" x2="0.5" y2="0.999" xlink:href="#linear-gradient-2"/>
    <linearGradient id="linear-gradient-6" x1="0.5" y1="0" x2="0.5" y2="1" xlink:href="#linear-gradient-2"/>
  </defs>
  <g id="Layer_1" data-name="Layer 1">
    <path id="Path_3" data-name="Path 3" d="M283.132,195.644a23.637,23.637,0,0,1-22.637-30.453l1.582-5.3,1.591,5.3a20.313,20.313,0,0,0,38.9,0l1.591-5.3,1.6,5.3a23.651,23.651,0,0,1-22.637,30.453Zm-20.3-24.214v.577a20.309,20.309,0,0,0,40.617,0v-.577a23.623,23.623,0,0,1-40.6,0Z" transform="translate(-133.69 -82.386)" fill="url(#linear-gradient)"/>
    <path id="Path_4" data-name="Path 4" d="M304.41,93.651H267.146a56.082,56.082,0,0,0-17.311-38.42l24.844-25.656a2.025,2.025,0,0,0,.6-2.085,2.134,2.134,0,0,0-1.655-1.468,2.217,2.217,0,0,0-2.119.736L246.68,52.386A60.922,60.922,0,0,0,209.6,38.3V2.08a2.169,2.169,0,0,0-4.334,0v36.2a60.964,60.964,0,0,0-36.858,13.91L143.2,25.67a2.237,2.237,0,0,0-3.069-.129,2.027,2.027,0,0,0-.135,2.946l25.216,26.538a56.109,56.109,0,0,0-17.517,38.627H110.127a2.081,2.081,0,1,0,0,4.159H147.7a56.191,56.191,0,0,0,18.382,39.162c-.621.62-1.242,1.23-1.873,1.836l-.46.469c-6.745,6.521-15.981,15.45-26.3,13.253-6.154-1.31-8.007-5.2-8.565-7.4a10.689,10.689,0,0,1,3.9-10.868c2.891-2.314,8.2-2.892,10.727-.169a3.931,3.931,0,0,1,1.1,3.488,5.406,5.406,0,0,1-2.964,3.662,2.04,2.04,0,0,0-.9,2.814,2.215,2.215,0,0,0,2.932.861,9.6,9.6,0,0,0,5.195-6.6,7.953,7.953,0,0,0-2.128-6.99c-4.285-4.624-12.263-3.85-16.744-.263a14.773,14.773,0,0,0-5.312,15.046c1.355,5.347,5.669,9.168,11.838,10.483a20.482,20.482,0,0,0,4.275.469c10.693,0,19.449-8.45,26.043-14.839l.46-.446c.685-.657,1.36-1.324,2.035-2a60.914,60.914,0,0,0,35.919,13.145V189.1a2.169,2.169,0,0,0,4.334,0v-36.2a60.937,60.937,0,0,0,36.031-13.239l25.24,26.585a2.237,2.237,0,0,0,3.069.129,2.027,2.027,0,0,0,.135-2.946l-25.216-26.548a56.2,56.2,0,0,0,18.28-39.063H304.41a2.081,2.081,0,1,0,0-4.159Zm-41.676-1.408q-14.9-12.971-30.729-18.623L246.9,58.283a52.05,52.05,0,0,1,15.834,33.984Zm-53.4,24.543c-18.446.638-36.457-6.521-53.607-21.294,5.831-5.22,24.771-20.294,49.757-21.125a65.946,65.946,0,0,1,21.151,2.784,2.157,2.157,0,0,0,.45.136c10.849,3.324,21.469,9.441,31.756,18.309C253.053,100.834,234.245,115.917,209.333,116.786Zm34.393-61.358L227.49,72.193A71.62,71.62,0,0,0,209.6,69.376V42.448A56.49,56.49,0,0,1,243.725,55.428Zm-38.462-12.98V69.395h0a74.865,74.865,0,0,0-17.83,2.817L171.345,55.278A56.445,56.445,0,0,1,205.263,42.448ZM168.146,58.1l14.743,15.52a92.283,92.283,0,0,0-30.748,18.219A52.1,52.1,0,0,1,168.146,58.1Zm-16.02,41.007q15.4,13.3,31.736,18.834c-1.34,1.465-2.681,2.934-3.987,4.375-3.512,3.864-7.107,7.816-10.8,11.633a52.178,52.178,0,0,1-16.939-34.843Zm20.192,37.608c3.713-3.84,7.313-7.8,10.825-11.666,1.717-1.878,3.483-3.826,5.234-5.727a71.381,71.381,0,0,0,16.876,2.474v26.933a56.494,56.494,0,0,1-32.925-12.013Zm37.269,12.013V121.776a74.533,74.533,0,0,0,16.631-2.535l16.465,17.337A56.5,56.5,0,0,1,209.6,148.728Zm36.334-14.933-15.139-15.933A91.491,91.491,0,0,0,262.714,98.98,52.163,52.163,0,0,1,245.922,133.794Z" transform="translate(-57.278)" fill="url(#radial-gradient)"/>
    <path id="Path_5" data-name="Path 5" d="M0,454.641V430.806H21.834a17.281,17.281,0,0,1,4.225.441,6.647,6.647,0,0,1,2.709,1.319,4.825,4.825,0,0,1,1.437,2.2,10.145,10.145,0,0,1,.427,3.08v9.99A9.389,9.389,0,0,1,30.2,450.8a4.619,4.619,0,0,1-1.437,2.117,6.934,6.934,0,0,1-2.709,1.286,17.312,17.312,0,0,1-4.225.437Zm26.134-16.792a5.944,5.944,0,0,0-.2-1.69,2.188,2.188,0,0,0-.695-1.084,2.926,2.926,0,0,0-1.3-.573,10.334,10.334,0,0,0-2.084-.174H4.5V451.12H21.834a10.71,10.71,0,0,0,2.084-.169,3.2,3.2,0,0,0,1.319-.54,1.985,1.985,0,0,0,.695-1.014,5.356,5.356,0,0,0,.2-1.591Z" transform="translate(0 -222.367)" fill="url(#linear-gradient-2)"/>
    <path id="Path_6" data-name="Path 6" d="M134.343,454.639v-10.83h-19.5v10.83h-4.5V430.8h4.5v9.478h19.5V430.8h4.5v23.834Z" transform="translate(-56.968 -222.365)" fill="url(#linear-gradient-3)"/>
    <path id="Path_7" data-name="Path 7" d="M241.6,454.644l-12.29-19.2-12.492,19.2H211.8l15.844-23.834h3.286l15.741,23.834Z" transform="translate(-109.276 -222.37)" fill="url(#linear-gradient-4)"/>
    <path id="Path_8" data-name="Path 8" d="M349.476,454.642l-5.582-10.628H331.332v10.628h-4.5V430.807H347.1a12.242,12.242,0,0,1,3.455.427,6.309,6.309,0,0,1,2.319,1.183,4.5,4.5,0,0,1,1.268,1.812,6.488,6.488,0,0,1,.4,2.347v1.695a5.633,5.633,0,0,1-1.352,3.845,6.718,6.718,0,0,1-4.54,1.845l5.633,10.694Zm.577-18.112c0-1.465-1-2.2-2.981-2.2H331.332v6.164H347.1q2.981,0,2.981-2.2Z" transform="translate(-168.754 -222.368)" fill="url(#linear-gradient-5)"/>
    <path id="Path_9" data-name="Path 9" d="M461.795,454.644v-16.7L449.678,454.63h-3.69l-12.154-16.642v16.656H429.67V430.81h4.2l14.149,19.468L462.1,430.81h3.873v23.834Z" transform="translate(-221.649 -222.37)" fill="url(#linear-gradient-6)"/>
    <path id="Path_10" data-name="Path 10" d="M577.512,454.644l-12.29-19.2-12.492,19.2H547.72l15.844-23.834h3.286l15.741,23.834Z" transform="translate(-282.591 -222.37)" fill="url(#linear-gradient-4)"/>
  </g>
</svg>
